<svg xmlns="http://www.w3.org/2000/svg" viewBox="0 0 300 300" width="300" height="300" shape-rendering="crispEdges">
  <rect width="300" height="300" fill="#fff"/>
  <!-- decorative only — not a valid QR payload -->
  <g fill="#000">
    <!-- finder top-left -->
    <rect x="20" y="20" width="70" height="70"/><rect x="30" y="30" width="50" height="50" fill="#fff"/><rect x="40" y="40" width="30" height="30"/>
    <!-- finder top-right -->
    <rect x="210" y="20" width="70" height="70"/><rect x="220" y="30" width="50" height="50" fill="#fff"/><rect x="230" y="40" width="30" height="30"/>
    <!-- finder bottom-left -->
    <rect x="20" y="210" width="70" height="70"/><rect x="30" y="220" width="50" height="50" fill="#fff"/><rect x="40" y="230" width="30" height="30"/>
    <!-- alignment -->
    <rect x="132" y="132" width="36" height="36"/><rect x="140" y="140" width="20" height="20" fill="#fff"/><rect x="146" y="146" width="8" height="8"/>
    <!-- timing -->
    <rect x="100" y="28" width="8" height="8"/><rect x="116" y="28" width="8" height="8"/><rect x="132" y="28" width="8" height="8"/><rect x="148" y="28" width="8" height="8"/><rect x="164" y="28" width="8" height="8"/><rect x="180" y="28" width="8" height="8"/>
    <rect x="28" y="100" width="8" height="8"/><rect x="28" y="116" width="8" height="8"/><rect x="28" y="132" width="8" height="8"/><rect x="28" y="148" width="8" height="8"/><rect x="28" y="164" width="8" height="8"/><rect x="28" y="180" width="8" height="8"/>
    <!-- scrambled data modules -->
    <rect x="100" y="44" width="8" height="8"/><rect x="116" y="44" width="8" height="8"/><rect x="148" y="44" width="8" height="8"/><rect x="180" y="44" width="8" height="8"/>
    <rect x="108" y="52" width="8" height="8"/><rect x="132" y="52" width="8" height="8"/><rect x="164" y="52" width="8" height="8"/><rect x="196" y="52" width="8" height="8"/>
    <rect x="100" y="60" width="8" height="8"/><rect x="124" y="60" width="8" height="8"/><rect x="156" y="60" width="8" height="8"/><rect x="188" y="60" width="8" height="8"/>
    <rect x="116" y="68" width="8" height="8"/><rect x="140" y="68" width="8" height="8"/><rect x="172" y="68" width="8" height="8"/><rect x="204" y="68" width="8" height="8"/>
    <rect x="100" y="76" width="8" height="8"/><rect x="132" y="76" width="8" height="8"/><rect x="148" y="76" width="8" height="8"/><rect x="180" y="76" width="8" height="8"/>
    <rect x="108" y="84" width="8" height="8"/><rect x="124" y="84" width="8" height="8"/><rect x="164" y="84" width="8" height="8"/><rect x="196" y="84" width="8" height="8"/>
    <rect x="100" y="100" width="8" height="8"/><rect x="148" y="100" width="8" height="8"/><rect x="172" y="100" width="8" height="8"/><rect x="204" y="100" width="8" height="8"/>
    <rect x="116" y="108" width="8" height="8"/><rect x="140" y="108" width="8" height="8"/><rect x="180" y="108" width="8" height="8"/><rect x="212" y="108" width="8" height="8"/>
    <rect x="100" y="116" width="8" height="8"/><rect x="124" y="116" width="8" height="8"/><rect x="156" y="116" width="8" height="8"/><rect x="188" y="116" width="8" height="8"/>
    <rect x="180" y="132" width="8" height="8"/><rect x="204" y="132" width="8" height="8"/><rect x="228" y="132" width="8" height="8"/>
    <rect x="100" y="140" width="8" height="8"/><rect x="124" y="140" width="8" height="8"/><rect x="196" y="140" width="8" height="8"/><rect x="220" y="140" width="8" height="8"/>
    <rect x="108" y="148" width="8" height="8"/><rect x="156" y="148" width="8" height="8"/><rect x="180" y="148" width="8" height="8"/><rect x="212" y="148" width="8" height="8"/>
    <rect x="100" y="156" width="8" height="8"/><rect x="132" y="156" width="8" height="8"/><rect x="164" y="156" width="8" height="8"/><rect x="204" y="156" width="8" height="8"/>
    <rect x="116" y="164" width="8" height="8"/><rect x="148" y="164" width="8" height="8"/><rect x="172" y="164" width="8" height="8"/><rect x="228" y="164" width="8" height="8"/>
    <rect x="100" y="172" width="8" height="8"/><rect x="124" y="172" width="8" height="8"/><rect x="156" y="172" width="8" height="8"/><rect x="188" y="172" width="8" height="8"/>
    <rect x="108" y="180" width="8" height="8"/><rect x="140" y="180" width="8" height="8"/><rect x="164" y="180" width="8" height="8"/><rect x="212" y="180" width="8" height="8"/>
    <rect x="100" y="196" width="8" height="8"/><rect x="132" y="196" width="8" height="8"/><rect x="148" y="196" width="8" height="8"/><rect x="180" y="196" width="8" height="8"/>
    <rect x="116" y="204" width="8" height="8"/><rect x="156" y="204" width="8" height="8"/><rect x="172" y="204" width="8" height="8"/><rect x="204" y="204" width="8" height="8"/>
    <rect x="100" y="212" width="8" height="8"/><rect x="124" y="212" width="8" height="8"/><rect x="164" y="212" width="8" height="8"/><rect x="196" y="212" width="8" height="8"/>
    <rect x="108" y="220" width="8" height="8"/><rect x="140" y="220" width="8" height="8"/><rect x="180" y="220" width="8" height="8"/><rect x="212" y="220" width="8" height="8"/>
    <rect x="100" y="228" width="8" height="8"/><rect x="132" y="228" width="8" height="8"/><rect x="148" y="228" width="8" height="8"/><rect x="188" y="228" width="8" height="8"/>
    <rect x="116" y="236" width="8" height="8"/><rect x="156" y="236" width="8" height="8"/><rect x="172" y="236" width="8" height="8"/><rect x="220" y="236" width="8" height="8"/>
    <rect x="100" y="244" width="8" height="8"/><rect x="124" y="244" width="8" height="8"/><rect x="164" y="244" width="8" height="8"/><rect x="204" y="244" width="8" height="8"/>
    <rect x="108" y="252" width="8" height="8"/><rect x="140" y="252" width="8" height="8"/><rect x="180" y="252" width="8" height="8"/><rect x="228" y="252" width="8" height="8"/>
    <rect x="100" y="260" width="8" height="8"/><rect x="132" y="260" width="8" height="8"/><rect x="148" y="260" width="8" height="8"/><rect x="196" y="260" width="8" height="8"/>
    <rect x="116" y="268" width="8" height="8"/><rect x="156" y="268" width="8" height="8"/><rect x="172" y="268" width="8" height="8"/><rect x="212" y="268" width="8" height="8"/>
  </g>
</svg>
